HIERARCHY
ROOT SpineBase
{
  OFFSET 0.000000 0.000000 0.000000
  CHANNELS 6 Xposition Yposition Zposition Zrotation Xrotation Yrotation
  JOINT SpineMid
  {
    OFFSET 0.000000 27.162449 0.000000
    CHANNELS 3 Zrotation Xrotation Yrotation
    JOINT SpineShoulder
    {
      OFFSET 0.019773 20.221625 -0.572803
      CHANNELS 3 Zrotation Xrotation Yrotation
      JOINT Neck
      {
        OFFSET 0.006225 6.714732 -0.471257
        CHANNELS 3 Zrotation Xrotation Yrotation
        JOINT Head
        {
          OFFSET 0.611943 12.577399 0.952750
          CHANNELS 3 Zrotation Xrotation Yrotation
          End Site
          {
            OFFSET 0 0 0
          }
        }
      }
      JOINT ShoulderLeft
      {
        OFFSET -12.455853 -3.397975 -7.685320
        CHANNELS 3 Zrotation Xrotation Yrotation
        JOINT ElbowLeft
        {
          OFFSET -5.726008 -15.662090 -1.880872
          CHANNELS 3 Zrotation Xrotation Yrotation
          JOINT WristLeft
          {
            OFFSET 19.519643 0.927568 -9.616009
            CHANNELS 3 Zrotation Xrotation Yrotation
            JOINT HandLeft
            {
              OFFSET 0.454851 0.409103 -0.560421
              CHANNELS 3 Zrotation Xrotation Yrotation
              JOINT HandTipLeft
              {
                OFFSET 3.430937 -0.852848 -4.006407
                CHANNELS 3 Zrotation Xrotation Yrotation
                End Site
                {
                  OFFSET 0 0 0
                }
              }
              JOINT ThumbLeft
              {
                OFFSET 2.416576 0.422896 -3.926140
                CHANNELS 3 Zrotation Xrotation Yrotation
                End Site
                {
                  OFFSET 0 0 0
                }
              }
            }
          }
        }
      }
      JOINT ShoulderRight
      {
        OFFSET 10.607684 -1.955574 4.005679
        CHANNELS 3 Zrotation Xrotation Yrotation
        JOINT ElbowRight
        {
          OFFSET 5.084274 -15.180930 -8.943555
          CHANNELS 3 Zrotation Xrotation Yrotation
          JOINT WristRight
          {
            OFFSET 6.443430 2.572201 18.832623
            CHANNELS 3 Zrotation Xrotation Yrotation
            JOINT HandRight
            {
              OFFSET 2.178430 0.802182 6.618208
              CHANNELS 3 Zrotation Xrotation Yrotation
              JOINT HandTipRight
              {
                OFFSET 0.307001 2.884348 -0.702492
                CHANNELS 3 Zrotation Xrotation Yrotation
                End Site
                {
                  OFFSET 0 0 0
                }
              }
              JOINT ThumbRight
              {
                OFFSET 0.487826 3.760497 -4.569621
                CHANNELS 3 Zrotation Xrotation Yrotation
                End Site
                {
                  OFFSET 0 0 0
                }
              }
            }
          }
        }
      }
    }
  }
  JOINT HipLeft
  {
    OFFSET -5.073675 0.996783 -4.931625
    CHANNELS 3 Zrotation Xrotation Yrotation
    JOINT KneeLeft
    {
      OFFSET -4.271880 -29.564319 -1.368531
      CHANNELS 3 Zrotation Xrotation Yrotation
      JOINT AnkleLeft
      {
        OFFSET -1.473562 -32.367660 6.859170
        CHANNELS 3 Zrotation Xrotation Yrotation
        JOINT FootLeft
        {
          OFFSET 4.392636 -5.830405 -0.626323
          CHANNELS 3 Zrotation Xrotation Yrotation
          End Site
          {
            OFFSET 0 0 0
          }
        }
      }
    }
  }
  JOINT HipRight
  {
    OFFSET 4.772875 0.473904 -1.179788
    CHANNELS 3 Zrotation Xrotation Yrotation
    JOINT KneeRight
    {
      OFFSET 0.048417 -28.444673 2.715201
      CHANNELS 3 Zrotation Xrotation Yrotation
      JOINT AnkleRight
      {
        OFFSET -4.095341 -34.378382 5.256424
        CHANNELS 3 Zrotation Xrotation Yrotation
        JOINT FootRight
        {
          OFFSET -3.190464 -4.253312 -6.197432
          CHANNELS 3 Zrotation Xrotation Yrotation
          End Site
          {
            OFFSET 0 0 0
          }
        }
      }
    }
  }
}
MOTION
Frames: 13
Frame Time: 0.033333
17.063926 69.323226 369.951094 1.830699 2.631173 -13.473409 0.392004 -0.253143 13.503787 1.160493 -0.147262 0.199641 22.975315 4.109379 -3.113600 0.000000 0.000000 0.000000 37.542692 42.108780 -40.304325 40.520483 2.105889 21.287700 -12.084068 31.846266 -23.726652 22.649644 2.508178 4.335599 0.000000 0.000000 0.000000 0.000000 0.000000 0.000000 77.040688 34.649347 -46.864958 75.509207 -22.380214 -175.361711 -21.198440 -5.975116 -18.244890 112.574549 60.095393 -143.354937 0.000000 0.000000 0.000000 0.000000 0.000000 0.000000 1.793417 -2.552509 13.444703 -2.226495 -1.412324 0.348222 -12.971063 48.816118 43.722744 0.000000 0.000000 0.000000 -1.248622 -4.532533 13.351609 1.805324 -0.966730 0.533208 16.506433 1.827351 -30.074021 0.000000 0.000000 0.000000
17.109103 69.458645 369.884936 1.903285 2.729703 -13.490244 1.008046 -0.388093 13.556771 0.743121 0.071538 0.180958 21.917488 4.529754 -3.159815 0.000000 0.000000 0.000000 35.364936 41.000849 -38.143003 40.621893 2.843314 20.035025 -8.615583 33.778740 -25.254699 13.379597 -5.088545 9.295986 0.000000 0.000000 0.000000 0.000000 0.000000 0.000000 79.498836 36.668241 -49.155501 75.942120 -23.365101 -171.586165 -19.780303 -6.835065 -16.923556 104.621938 58.603764 -137.087496 0.000000 0.000000 0.000000 0.000000 0.000000 0.000000 1.944887 -2.634950 13.464018 -2.623526 -1.423539 0.313352 -11.033961 46.137705 40.108196 0.000000 0.000000 0.000000 -1.216699 -4.855557 13.370134 2.001055 -0.944966 0.584078 14.474075 8.194516 -30.006976 0.000000 0.000000 0.000000
17.147331 69.572055 369.806642 2.322689 2.695689 -13.609732 1.511485 -0.574066 13.714465 -0.058497 0.370160 0.136424 20.080963 5.725532 -3.296692 0.000000 0.000000 0.000000 34.434916 40.418676 -37.124432 40.402777 3.157812 19.604719 -5.144673 35.940300 -25.860444 8.498223 -10.746357 10.093439 0.000000 0.000000 0.000000 0.000000 0.000000 0.000000 81.908023 38.049153 -51.278712 75.881114 -24.165575 -168.419773 -18.550556 -6.903661 -15.814629 98.939961 57.459481 -132.995666 0.000000 0.000000 0.000000 0.000000 0.000000 0.000000 1.767619 -2.683416 13.572602 -3.081885 -1.382929 0.268900 -8.605577 42.428626 35.456922 0.000000 0.000000 0.000000 -1.195839 -4.956559 13.537310 1.448234 -0.882593 0.535911 16.961876 5.951390 -33.061866 0.000000 0.000000 0.000000
17.223910 69.664193 369.747544 2.395777 2.776983 -13.665716 1.273245 -0.592292 13.756292 -0.306049 0.451574 0.106985 21.079243 5.255752 -3.174037 0.000000 0.000000 0.000000 32.920882 38.955965 -34.790996 40.300110 3.875923 18.303895 -2.793785 37.218216 -25.896257 2.250578 -16.788003 10.633988 0.000000 0.000000 0.000000 0.000000 0.000000 0.000000 83.674906 39.412889 -52.429317 77.057798 -24.557389 -166.441501 -16.973714 -6.473691 -14.529517 95.569406 57.479193 -130.525238 0.000000 0.000000 0.000000 0.000000 0.000000 0.000000 1.780912 -2.687220 13.614132 -3.503812 -1.326496 0.200419 -4.230917 27.442777 21.131376 0.000000 0.000000 0.000000 -1.237430 -5.350204 13.582890 1.321562 -0.524459 0.498480 19.136945 10.527167 -38.443483 0.000000 0.000000 0.000000
17.324181 69.737523 369.705206 2.399211 2.878387 -13.780802 0.587216 -0.532056 13.826529 -0.354599 0.415213 0.078096 23.224627 4.205800 -2.928384 0.000000 0.000000 0.000000 33.653605 38.599233 -34.527365 40.348826 3.857261 17.877386 -0.039012 39.460833 -26.386899 4.263874 -21.597504 7.542841 0.000000 0.000000 0.000000 0.000000 0.000000 0.000000 84.821281 40.672939 -52.824345 78.133049 -24.703687 -165.044816 -16.270179 -5.324143 -14.152115 91.345285 56.627154 -126.259454 0.000000 0.000000 0.000000 0.000000 0.000000 0.000000 1.803100 -2.865346 13.747083 -3.626216 -1.185180 0.155545 -3.436319 14.599300 10.850118 0.000000 0.000000 0.000000 -1.207459 -5.585184 13.693210 0.977886 -0.261197 0.429863 23.576341 16.587749 -47.230361 0.000000 0.000000 0.000000
17.432018 69.782290 369.674613 2.487478 2.904978 -13.891452 0.424674 -0.523049 13.927188 -0.254703 0.333923 0.085773 23.564051 4.139132 -2.949608 0.000000 0.000000 0.000000 33.397503 38.288111 -34.160187 40.444644 3.994065 17.350364 0.630874 40.837301 -24.737308 5.507867 -23.849009 4.536016 0.000000 0.000000 0.000000 0.000000 0.000000 0.000000 85.974910 41.264694 -53.864474 76.966993 -25.836135 -162.889180 -16.697482 -4.281588 -14.846553 86.949290 57.102828 -122.350786 0.000000 0.000000 0.000000 0.000000 0.000000 0.000000 1.636556 -3.010501 13.869067 -3.561038 -1.118295 0.131137 -4.325537 4.193018 2.773138 0.000000 0.000000 0.000000 -1.244354 -5.535390 13.806339 0.588725 -0.203585 0.363116 23.036346 18.079841 -46.136220 0.000000 0.000000 0.000000
17.529887 69.799373 369.651251 2.568001 2.913487 -13.991758 0.307986 -0.482930 14.020159 -0.156822 0.284860 0.094453 23.801269 4.054698 -2.958204 0.000000 0.000000 0.000000 33.006879 37.962021 -33.737245 40.508255 4.143830 16.931152 0.071611 41.702410 -21.871592 9.014973 -27.267104 -0.044639 0.000000 0.000000 0.000000 0.000000 0.000000 0.000000 86.616098 42.562736 -54.679699 77.574408 -26.792517 -161.024812 -16.783533 -3.339133 -15.333782 81.320981 58.126493 -116.525364 0.000000 0.000000 0.000000 0.000000 0.000000 0.000000 1.408509 -3.131255 13.976083 -3.355250 -1.139410 0.126119 -5.410733 -1.937858 -2.207932 0.000000 0.000000 0.000000 -1.386576 -5.521883 13.890422 0.548364 -0.201185 0.346705 17.842063 17.914961 -37.492540 0.000000 0.000000 0.000000
17.609233 69.777431 369.651453 2.648455 2.850002 -14.105870 0.243228 -0.493474 14.132401 -0.102532 0.178727 0.102422 23.874197 4.463622 -3.122359 0.000000 0.000000 0.000000 32.791977 37.823981 -33.526715 40.531304 4.260464 16.570059 0.033938 42.675385 -19.747311 9.315332 -29.310407 -2.729466 0.000000 0.000000 0.000000 0.000000 0.000000 0.000000 87.450087 43.636618 -55.722427 77.190077 -29.042977 -158.795323 -20.096386 -4.055942 -18.658162 79.074291 61.202854 -112.825200 0.000000 0.000000 0.000000 0.000000 0.000000 0.000000 1.260752 -3.233121 14.108749 -3.222370 -1.076345 0.118015 -5.747206 -3.509362 -3.566963 0.000000 0.000000 0.000000 -1.499941 -5.341043 13.999855 0.248484 -0.189460 0.287658 16.131803 13.053142 -32.416265 0.000000 0.000000 0.000000
17.711476 69.764086 369.658321 2.802390 2.775666 -14.079758 0.201766 -0.509341 14.107041 0.002375 0.093610 0.118406 23.624906 4.891923 -3.288419 0.000000 0.000000 0.000000 32.248971 37.729911 -33.252207 40.709126 4.431915 16.211061 0.452390 43.255104 -19.295689 9.554667 -31.823837 -4.146756 0.000000 0.000000 0.000000 0.000000 0.000000 0.000000 87.868774 44.486834 -56.514872 77.775605 -29.869299 -157.597785 -20.324811 -4.022754 -19.066305 79.510647 60.424994 -113.535980 0.000000 0.000000 0.000000 0.000000 0.000000 0.000000 0.960526 -3.276408 14.081859 -3.054179 -1.120998 0.114241 -4.586656 0.817565 -0.157155 0.000000 0.000000 0.000000 -1.841933 -5.138876 13.942086 0.182798 -0.331511 0.263909 14.596060 11.137474 -28.737153 0.000000 0.000000 0.000000
17.799404 69.758806 369.654919 2.967228 2.715358 -14.052474 0.196231 -0.526702 14.082736 0.054943 0.043158 0.130841 23.301680 5.283787 -3.427188 0.000000 0.000000 0.000000 31.579147 37.636218 -32.902861 40.983679 4.635483 15.854595 0.995854 43.915018 -18.912071 10.442795 -33.826071 -5.501363 0.000000 0.000000 0.000000 0.000000 0.000000 0.000000 88.131153 44.972571 -57.077201 77.951267 -31.664760 -156.627700 -22.509974 -6.685213 -20.719790 83.819517 61.386000 -117.872206 0.000000 0.000000 0.000000 0.000000 0.000000 0.000000 0.678138 -3.313283 14.050993 -2.911423 -1.184260 0.114810 -4.634459 1.332537 0.191030 0.000000 0.000000 0.000000 -2.214947 -5.033847 13.877111 0.002520 -0.292459 0.208373 15.468889 11.804010 -29.889311 0.000000 0.000000 0.000000
17.822998 69.758145 369.664929 3.015333 2.648166 -14.113700 0.233023 -0.505010 14.148093 0.086464 0.031119 0.137618 23.190131 5.546647 -3.524568 0.000000 0.000000 0.000000 30.725405 37.393014 -32.286441 41.244018 4.918764 15.480472 1.906895 43.872325 -20.246341 12.398150 -35.591706 -5.479969 0.000000 0.000000 0.000000 0.000000 0.000000 0.000000 88.008769 45.083512 -57.143532 78.075259 -32.806407 -156.462276 -24.104434 -8.942555 -21.830442 91.060378 61.181604 -125.437123 0.000000 0.000000 0.000000 0.000000 0.000000 0.000000 0.566165 -3.250450 14.105426 -2.846100 -1.242767 0.120074 -4.869047 1.964882 0.709436 0.000000 0.000000 0.000000 -2.370445 -4.911903 13.924112 0.001987 -0.385316 0.203178 15.159627 11.391879 -29.061638 0.000000 0.000000 0.000000
17.788431 69.764414 369.685744 2.977896 2.595992 -14.167134 0.281979 -0.452092 14.204598 0.122437 0.048508 0.141210 23.194945 5.572357 -3.543743 0.000000 0.000000 0.000000 30.116455 37.306816 -31.903216 41.662369 5.114782 15.160114 2.055188 43.739375 -20.937705 10.490249 -35.204893 -4.398646 0.000000 0.000000 0.000000 0.000000 0.000000 0.000000 88.060128 45.020194 -57.215844 78.039647 -33.507078 -156.363032 -25.176504 -10.558156 -22.537189 93.339963 60.529313 -127.745063 0.000000 0.000000 0.000000 0.000000 0.000000 0.000000 0.585140 -3.108962 14.145336 -2.911171 -1.314342 0.118413 -4.642345 2.528687 1.163882 0.000000 0.000000 0.000000 -2.189860 -4.627205 14.012081 0.128060 -0.866012 0.267909 13.935769 10.473143 -27.143067 0.000000 0.000000 0.000000
17.748980 69.770410 369.719855 2.898386 2.569214 -14.136984 0.322170 -0.365680 14.175343 0.156226 0.103556 0.141839 23.327156 5.336232 -3.477880 0.000000 0.000000 0.000000 29.816080 37.303340 -31.751297 42.111288 5.203127 14.903861 1.220223 43.529532 -20.499006 9.261304 -31.255478 -2.935544 0.000000 0.000000 0.000000 0.000000 0.000000 0.000000 87.889950 44.853607 -56.993032 78.105241 -33.762174 -156.621758 -25.201261 -11.961781 -22.244235 97.682282 58.525067 -133.017079 0.000000 0.000000 0.000000 0.000000 0.000000 0.000000 0.650221 -2.920900 14.092785 -2.958651 -1.502535 0.134864 -1.415698 1.071429 -0.496113 0.000000 0.000000 0.000000 -1.842159 -4.072567 14.042803 -0.081494 -1.606800 0.298973 13.117498 9.101058 -25.374915 0.000000 0.000000 0.000000
